<?xml version="1.0" encoding="utf-8"?>
<!-- Generator: Adobe Illustrator 21.0.2, SVG Export Plug-In . SVG Version: 6.00 Build 0)  -->
<svg version="1.1" id="Layer_1" xmlns="http://www.w3.org/2000/svg" xmlns:xlink="http://www.w3.org/1999/xlink" x="0px" y="0px"
	 viewBox="0 0 400 400" style="enable-background:new 0 0 400 400;" xml:space="preserve">
<g>
	<path d="M200,25c46.7,0,90.7,18.2,123.7,51.3S375,153.3,375,200c0,46.7-18.2,90.7-51.3,123.7S246.7,375,200,375
		c-46.7,0-90.7-18.2-123.7-51.3S25,246.7,25,200s18.2-90.7,51.3-123.7S153.3,25,200,25 M200,0C89.5,0,0,89.5,0,200
		c0,110.5,89.5,200,200,200c110.5,0,200-89.5,200-200C400,89.5,310.5,0,200,0L200,0z"/>
</g>
</svg>
